<svg xmlns="http://www.w3.org/2000/svg" width="430" height="430" style="width:100%;height:100%;transform:translate3d(0,0,0);content-visibility:visible" viewBox="0 0 430 430"><defs><clipPath id="c"><path d="M0 0h430v430H0z"/></clipPath><clipPath id="i"><path d="M0 0h430v430H0z"/></clipPath><clipPath id="h"><path d="M0 0h430v430H0z"/></clipPath><clipPath id="g"><path d="M0 0h430v430H0z"/></clipPath><clipPath id="d"><path d="M0 0h430v430H0z"/></clipPath><clipPath id="e"><path d="M0 0h430v430H0z"/></clipPath><filter id="a" width="100%" height="100%" x="0%" y="0%" filterUnits="objectBoundingBox"><feComponentTransfer in="SourceGraphic"><feFuncA tableValues="1.0 0.0" type="table"/></feComponentTransfer></filter><path id="b" style="display:none"/><mask id="f" mask-type="alpha" maskUnits="userSpaceOnUse"><g filter="url(#a)"><path fill="#fff" d="M0 0h430v430H0z" opacity="0"/><use xmlns:ns1="http://www.w3.org/1999/xlink" ns1:href="#b"/></g></mask></defs><g clip-path="url(#c)"><g clip-path="url(#d)" style="display:none"><g clip-path="url(#e)" style="display:none"><g mask="url(#f)" style="display:none"><path fill="none" class="primary"/></g><g fill="none" style="display:none"><path class="secondary"/><path class="primary"/></g><g style="display:none"><path class="secondary"/><path fill="none" class="secondary"/></g><g fill="none" style="display:none"><path class="secondary"/><path class="primary"/></g><path fill="none" class="primary" style="display:none"/></g></g><g clip-path="url(#g)" style="display:none"><path fill="none" class="secondary" style="display:none"/><path fill="none" class="secondary" style="display:none"/><path fill="none" class="secondary" style="display:none"/><path fill="none" class="secondary" style="display:none"/><path fill="none" class="secondary" style="display:none"/><g style="display:none"><path class="secondary"/><path fill="none" class="secondary"/></g><path fill="none" class="primary" style="display:none"/></g><g fill="none" clip-path="url(#h)" style="display:block"><path stroke="#000" stroke-width="28.5" d="M-104-159.9c-31.038 0-56.2 25.162-56.2 56.2l-.2 206.407c0 31.863 25.83 57.693 57.693 57.693l205.812-.2c31.533 0 57.095-25.562 57.095-57.095l.2-206.305c0-31.425-25.475-56.9-56.9-56.9z" class="secondary" style="display:block" transform="translate(215 215)scale(.625)"/><g style="display:block"><path d="M215 162.47c28.991 0 52.53 23.539 52.53 52.53s-23.539 52.53-52.53 52.53-52.53-23.539-52.53-52.53 23.539-52.53 52.53-52.53" class="secondary"/><path stroke="#000" stroke-width="18.0765" d="M215 162.47c28.991 0 52.53 23.539 52.53 52.53s-23.539 52.53-52.53 52.53-52.53-23.539-52.53-52.53 23.539-52.53 52.53-52.53z" class="secondary"/></g><path stroke="#000" stroke-linecap="round" stroke-linejoin="round" stroke-width="36" d="M99.938-100.5h-.063" class="secondary" style="display:block" transform="translate(214.75 215.564)scale(.628)"/><path stroke="#000" stroke-linejoin="round" stroke-width="18" d="M160-140v280c0 11.038-8.962 20-20 20h-280c-11.038 0-20-8.962-20-20v-280c0-11.038 8.962-20 20-20h280c11.038 0 20 8.962 20 20z" class="primary" style="display:block" transform="translate(215 215)"/></g><g fill="none" clip-path="url(#i)" style="display:none"><path class="secondary" style="display:none"/><path class="secondary" style="display:none"/><path class="secondary" style="display:none"/><path class="primary" style="display:none"/><path class="primary" style="display:none"/></g></g></svg>