<svg xmlns="http://www.w3.org/2000/svg" width="430" height="430" style="width:100%;height:100%;transform:translate3d(0,0,0);content-visibility:visible" viewBox="0 0 430 430"><defs><clipPath id="d"><path d="M0 0h430v430H0z"/></clipPath><clipPath id="h"><path d="M0 0h430v430H0z"/></clipPath><clipPath id="e"><path d="M0 0h430v430H0z"/></clipPath><mask id="i" mask-type="alpha"><use xmlns:ns1="http://www.w3.org/1999/xlink" ns1:href="#a"/></mask><mask id="g" mask-type="alpha"><use xmlns:ns2="http://www.w3.org/1999/xlink" ns2:href="#b"/></mask><mask id="f" mask-type="alpha"><use xmlns:ns3="http://www.w3.org/1999/xlink" ns3:href="#c"/></mask><path id="b" style="display:none"/><path id="c" fill="red" d="M160-140v280c0 11.038-8.962 20-20 20h-280c-11.038 0-20-8.962-20-20v-280c0-11.038 8.962-20 20-20h280c11.038 0 20 8.962 20 20" style="display:block" transform="translate(215 215)"/><g id="a" style="display:none"><path/><path fill-opacity="0" stroke-linejoin="round" class="primary"/></g></defs><g clip-path="url(#d)"><g clip-path="url(#e)" style="display:block"><path fill="none" stroke="#000" stroke-linecap="round" stroke-linejoin="round" stroke-width="18" d="M212.643 277.064 170 320m5.123-70.447L170 320m0 0-27.391-86.704m160.996-97.532-45.286 166.375c-.921 3.385-4.952 4.794-7.781 2.719l-75.415-55.305 75.866-75.865-108.38 59.608-45.374-12.374c-4.612-1.258-4.998-7.649-.572-9.454l200.229-81.647c3.835-1.564 7.801 1.946 6.713 5.943" class="secondary" style="display:none"/><g mask="url(#f)" style="display:block"><path fill="none" stroke="#000" stroke-linecap="round" stroke-linejoin="round" stroke-width="18" d="m462.853 221.02-42.89 10.621m28.871-50.886-28.871 50.886m0 0 7.282-80.132m196.45 15.325L485.094 253.2c-2.358 2.597-6.589 2.023-8.168-1.11l-28.092-71.334 110.62-14.752-132.21-14.493-31.448-18.449c-3.853-2.828-1.92-8.932 2.859-9.03l221.757 34.46c4.127.348 6.067 5.276 3.283 8.343" class="secondary"/></g><g fill="none" mask="url(#g)" style="display:none"><path class="secondary"/><path class="secondary"/></g><path fill="none" stroke="#000" stroke-linecap="round" stroke-linejoin="round" stroke-width="18" d="m212.878 278.116-42.643 42.936m5.123-70.447-5.123 70.447m0 0-27.391-86.704m160.996-97.532-45.286 166.375c-.921 3.385-4.952 4.794-7.781 2.719l-75.415-55.305 75.866-75.865-108.38 59.608-45.374-12.374c-4.612-1.258-4.998-7.649-.572-9.454l200.229-81.647c3.835-1.564 7.801 1.946 6.713 5.943" class="secondary" style="display:block"/><path fill="none" stroke="#000" stroke-linejoin="round" stroke-width="18" d="M160-140v280c0 11.038-8.962 20-20 20h-280c-11.038 0-20-8.962-20-20v-280c0-11.038 8.962-20 20-20h280c11.038 0 20 8.962 20 20z" class="primary" style="display:block" transform="translate(215 215)"/></g><g fill="none" clip-path="url(#h)" style="display:none"><g mask="url(#i)" style="display:none"><path class="secondary"/><path class="secondary"/></g><g style="display:none"><path class="secondary"/><path class="secondary"/></g><path class="primary" style="display:none"/></g></g></svg>